<?xml version="1.0" encoding="UTF-8" standalone="no"?>
<!DOCTYPE svg PUBLIC "-//W3C//DTD SVG 1.1//EN"
 "http://www.w3.org/Graphics/SVG/1.1/DTD/svg11.dtd">
<!-- Generated by graphviz version 2.47.0 (20210316.0004)
 -->
<!-- Title: dbml Pages: 1 -->
<svg width="775pt" height="777pt"
 viewBox="0.00 0.00 774.50 777.33" xmlns="http://www.w3.org/2000/svg" xmlns:xlink="http://www.w3.org/1999/xlink">
<g id="graph0" class="graph" transform="scale(1 1) rotate(0) translate(4 773.33)">
<title>dbml</title>
<!-- prices -->
<g id="prices" class="node">
<title>prices</title>
<ellipse fill="none" stroke="black" stroke-width="0" cx="383.25" cy="-384.67" rx="383" ry="384.83"/>
<polygon fill="#1d71b8" stroke="transparent" points="114.25,-594.67 114.25,-654.67 652.25,-654.67 652.25,-594.67 114.25,-594.67"/>
<polygon fill="none" stroke="#29235c" points="114.25,-594.67 114.25,-654.67 652.25,-654.67 652.25,-594.67 114.25,-594.67"/>
<text text-anchor="start" x="278.34" y="-615.87" font-family="Helvetica,sans-Serif" font-weight="bold" font-size="32.00" fill="#ffffff"> &#160;&#160;&#160;&#160;&#160;&#160;prices &#160;&#160;&#160;&#160;&#160;&#160;</text>
<polygon fill="#e7e2dd" stroke="transparent" points="114.25,-534.67 114.25,-594.67 652.25,-594.67 652.25,-534.67 114.25,-534.67"/>
<polygon fill="none" stroke="#29235c" points="114.25,-534.67 114.25,-594.67 652.25,-594.67 652.25,-534.67 114.25,-534.67"/>
<text text-anchor="start" x="125.25" y="-555.87" font-family="Helvetica,sans-Serif" font-weight="bold" font-size="32.00" fill="#29235c">id</text>
<text text-anchor="start" x="150.14" y="-555.87" font-family="Helvetica,sans-Serif" font-size="32.00" fill="#29235c"> &#160;&#160;&#160;</text>
<text text-anchor="start" x="543.45" y="-555.87" font-family="Helvetica,sans-Serif" font-style="italic" font-size="32.00" fill="#29235c">integer</text>
<polygon fill="#e7e2dd" stroke="transparent" points="114.25,-474.67 114.25,-534.67 652.25,-534.67 652.25,-474.67 114.25,-474.67"/>
<polygon fill="none" stroke="#29235c" points="114.25,-474.67 114.25,-534.67 652.25,-534.67 652.25,-474.67 114.25,-474.67"/>
<text text-anchor="start" x="125.25" y="-494.87" font-family="Helvetica,sans-Serif" font-size="32.00" fill="#29235c">amount &#160;&#160;&#160;</text>
<text text-anchor="start" x="447.47" y="-495.87" font-family="Helvetica,sans-Serif" font-style="italic" font-size="32.00" fill="#29235c">decimal(10,2)</text>
<polygon fill="#e7e2dd" stroke="transparent" points="114.25,-414.67 114.25,-474.67 652.25,-474.67 652.25,-414.67 114.25,-414.67"/>
<polygon fill="none" stroke="#29235c" points="114.25,-414.67 114.25,-474.67 652.25,-474.67 652.25,-414.67 114.25,-414.67"/>
<text text-anchor="start" x="125.25" y="-434.87" font-family="Helvetica,sans-Serif" font-size="32.00" fill="#29235c">rate &#160;&#160;&#160;</text>
<text text-anchor="start" x="443.91" y="-435.87" font-family="Helvetica,sans-Serif" font-style="italic" font-size="32.00" fill="#29235c">numeric(18,4)</text>
<polygon fill="#e7e2dd" stroke="transparent" points="114.25,-354.67 114.25,-414.67 652.25,-414.67 652.25,-354.67 114.25,-354.67"/>
<polygon fill="none" stroke="#29235c" points="114.25,-354.67 114.25,-414.67 652.25,-414.67 652.25,-354.67 114.25,-354.67"/>
<text text-anchor="start" x="125.25" y="-374.87" font-family="Helvetica,sans-Serif" font-size="32.00" fill="#29235c">compact &#160;&#160;&#160;</text>
<text text-anchor="start" x="465.26" y="-375.87" font-family="Helvetica,sans-Serif" font-style="italic" font-size="32.00" fill="#29235c">decimal(3,5)</text>
<polygon fill="#e7e2dd" stroke="transparent" points="114.25,-294.67 114.25,-354.67 652.25,-354.67 652.25,-294.67 114.25,-294.67"/>
<polygon fill="none" stroke="#29235c" points="114.25,-294.67 114.25,-354.67 652.25,-354.67 652.25,-294.67 114.25,-294.67"/>
<text text-anchor="start" x="125.01" y="-314.87" font-family="Helvetica,sans-Serif" font-size="32.00" fill="#29235c">large_precision &#160;&#160;&#160;</text>
<text text-anchor="start" x="376.78" y="-315.87" font-family="Helvetica,sans-Serif" font-style="italic" font-size="32.00" fill="#29235c">decimal(131072,2)</text>
<polygon fill="#e7e2dd" stroke="transparent" points="114.25,-234.67 114.25,-294.67 652.25,-294.67 652.25,-234.67 114.25,-234.67"/>
<polygon fill="none" stroke="#29235c" points="114.25,-234.67 114.25,-294.67 652.25,-294.67 652.25,-234.67 114.25,-234.67"/>
<text text-anchor="start" x="125.25" y="-254.87" font-family="Helvetica,sans-Serif" font-size="32.00" fill="#29235c">label &#160;&#160;&#160;</text>
<text text-anchor="start" x="459.91" y="-255.87" font-family="Helvetica,sans-Serif" font-style="italic" font-size="32.00" fill="#29235c">varchar(255)</text>
<polygon fill="#e7e2dd" stroke="transparent" points="114.25,-174.67 114.25,-234.67 652.25,-234.67 652.25,-174.67 114.25,-174.67"/>
<polygon fill="none" stroke="#29235c" points="114.25,-174.67 114.25,-234.67 652.25,-234.67 652.25,-174.67 114.25,-174.67"/>
<text text-anchor="start" x="125.25" y="-194.87" font-family="Helvetica,sans-Serif" font-size="32.00" fill="#29235c">code &#160;&#160;&#160;</text>
<text text-anchor="start" x="522.14" y="-195.87" font-family="Helvetica,sans-Serif" font-style="italic" font-size="32.00" fill="#29235c">char(10)</text>
<polygon fill="#e7e2dd" stroke="transparent" points="114.25,-114.67 114.25,-174.67 652.25,-174.67 652.25,-114.67 114.25,-114.67"/>
<polygon fill="none" stroke="#29235c" points="114.25,-114.67 114.25,-174.67 652.25,-174.67 652.25,-114.67 114.25,-114.67"/>
<text text-anchor="start" x="125.25" y="-134.87" font-family="Helvetica,sans-Serif" font-size="32.00" fill="#29235c">score &#160;&#160;&#160;</text>
<text text-anchor="start" x="523.9" y="-135.87" font-family="Helvetica,sans-Serif" font-style="italic" font-size="32.00" fill="#29235c">float(24)</text>
<polygon fill="none" stroke="#29235c" stroke-width="2" points="113.25,-113.67 113.25,-655.67 653.25,-655.67 653.25,-113.67 113.25,-113.67"/>
</g>
</g>
</svg>
